<svg id="Capa_1" data-name="Capa 1" xmlns="http://www.w3.org/2000/svg" viewBox="0 0 349.79 221.37"><defs><style>.cls-1{fill:#3373a7;}.cls-2,.cls-3{fill:#10a2ab;}.cls-2{stroke:#10a2ab;stroke-miterlimit:10;stroke-width:0.75px;}</style></defs><path class="cls-1" d="M94.32,188.17c5.37,0,12.48.05,15.52,5.7a8.08,8.08,0,0,1-.22,7.76c-2,3-6,4.28-8.25,4.72,3.09.43,8,1.46,10.09,5.91a10.57,10.57,0,0,1-.54,9.11c-3.31,5.1-10.74,5.27-13.73,5.27H82.33v-1.2h4.56v-36H82.33v-1.25Zm.92,17.52c3.09,0,6.24.33,8.14-2.65,1.36-2.12,1.19-8.41,0-10.48-1.41-2.44-2.17-3.14-7.6-3.14H93.23v16.27Zm-.7,19.75c1.79,0,7.59.38,9.71-3.2,1.25-2.17,1.41-9.49,0-12-2.06-3.52-6.46-3.14-10.31-3.14h-.71v18.33Z" transform="translate(-82.33 -41.62)"/><path class="cls-1" d="M121.07,213.45v1.79c0,6-.27,8.2,2.22,10,1.3,1,3.69.92,5.48.27a7.75,7.75,0,0,0,5.37-6.56h1.09c-.44,3.36-2,6.24-6,7.65a9.91,9.91,0,0,1-9.55-1.68,11.83,11.83,0,0,1-4.56-11,12.33,12.33,0,0,1,6.84-9.71,10,10,0,0,1,9.5.81,9.43,9.43,0,0,1,4.23,8.41Zm6-8.68a6.38,6.38,0,0,0-4.4.54,3.35,3.35,0,0,0-1.57,3.15v3.8h8.68v-3.42C129.75,205.86,128.18,205,127,204.77Z" transform="translate(-82.33 -41.62)"/><path class="cls-1" d="M147.82,195v9h5.48v1.2h-5.48v14.65c0,3.36-.17,4.34.81,5.2a2.4,2.4,0,0,0,2.33.27c1.74-.48,2.23-1.73,2.66-3h.92c-.59,2.55-1.51,3.74-3.52,4.45a7.47,7.47,0,0,1-6.24-.6c-2.61-1.84-2.33-3.85-2.33-7.54V205.21h-3.31v-.76a15.26,15.26,0,0,0,7.7-9.44Z" transform="translate(-82.33 -41.62)"/><path class="cls-1" d="M169.3,203.69h1v6.78h-1.14c-.54-2.71-1.46-4.45-4.23-5.43a5.83,5.83,0,0,0-5.26.71,3.9,3.9,0,0,0-1.63,3.25,3.21,3.21,0,0,0,2.06,2.66c2.5,1.14,7.49.06,10,3.37a8.73,8.73,0,0,1,.87,7.54,6.77,6.77,0,0,1-5.21,4.5c-2.44.54-4.94-.22-7.76-2.17l-1.36,1.74H156v-8.47h.92c.87,3.31,1.85,6.62,5.64,7.49a6.05,6.05,0,0,0,5.76-1.46,3.78,3.78,0,0,0,.81-3.75c-.71-2-2.66-2.49-5.21-2.66-3.47-.21-5.8-1-7.11-3.63a9.27,9.27,0,0,1,0-7,6.41,6.41,0,0,1,4.62-3.58c2.33-.49,4.39.22,6.94,1.73Z" transform="translate(-82.33 -41.62)"/><path class="cls-1" d="M196.86,225.23c-2.11,1.73-3.47,2.28-5.69,1.9-2-.33-3-2-3.26-4.56-1.57,3-3.63,4.39-6.62,4.66-1.57.11-4.23-.21-5.75-2.22a5.76,5.76,0,0,1-.7-5.32c1.14-2.93,3.85-4.39,6.72-5.1a21.41,21.41,0,0,1,6.35-.7c0-3.26.22-8-1.41-9a6.25,6.25,0,0,0-5,0c-.93.43-1.63,1-1.69,1.68,0,.16.71,1.35.76,1.52a2.38,2.38,0,0,1,.27,1.52,2.33,2.33,0,0,1-1.57,1.9,2.42,2.42,0,0,1-2.28-.28,2.91,2.91,0,0,1-.81-2.65c.38-2.07,2.06-3.58,4.39-4.51s8.36-.76,10.58.82c2.44,1.73,2.12,4.34,2.12,7.65v11.66c0,1.9,1.41,1.74,3.15.38Zm-17.36-3.86a3.58,3.58,0,0,0,1.9,3,4.68,4.68,0,0,0,4-.38c2.88-1.9,2.55-5.26,2.55-8.19v-.76c-2.33,0-4.77.38-6.13,1.36A5.91,5.91,0,0,0,179.5,221.37Z" transform="translate(-82.33 -41.62)"/><path class="cls-1" d="M199.69,189.26v-1.2h8.79v19.53c2.33-3.31,4.17-4.34,7.16-4.17s5.48,1.62,7.32,5,2.23,9.76.16,13.62a9.28,9.28,0,0,1-7.43,5.2c-3.31.22-5-.86-7.21-4.55v4h-8.79v-1.2h3.47V189.26Zm12.47,16.11c-3.14,2.12-3.63,5.8-3.68,8.79,0,1.25,0,2.39.05,3.25.11,1.85,1.41,6.73,4.12,8.14a4.1,4.1,0,0,0,3.8-.11c2.33-1.41,2.06-3.2,2.06-7.43V212.8c0-3.31.33-6.51-2.49-7.86A4.18,4.18,0,0,0,212.16,205.37Z" transform="translate(-82.33 -41.62)"/><path class="cls-1" d="M233,213.45v1.79c0,6-.27,8.2,2.22,10,1.31,1,3.69.92,5.48.27a7.78,7.78,0,0,0,5.38-6.56h1.08a8.61,8.61,0,0,1-6,7.65,9.92,9.92,0,0,1-9.55-1.68,11.82,11.82,0,0,1-4.55-11,12.32,12.32,0,0,1,6.83-9.71,10,10,0,0,1,9.5.81,9.43,9.43,0,0,1,4.23,8.41Zm6-8.68a6.56,6.56,0,0,0-4.45.54,3.43,3.43,0,0,0-1.52,3.15v3.8h8.68v-3.42C241.68,205.86,240.11,205,239,204.77Zm-4.61-3.63h-1l6.08-11h4.88v.82Z" transform="translate(-82.33 -41.62)"/><path class="cls-1" d="M286.77,188.17h1v10h-1.09c-1.41-4.23-2.66-7.27-7.38-8.89a9.8,9.8,0,0,0-8.35,1c-3.74,2.65-4.29,9.55-4.29,11.77v11.5c0,2.33-.21,8.25,4.18,11a9.93,9.93,0,0,0,9.06.48c4.29-2.06,5.81-5.48,7.11-9.33h.76v10.91h-1l-1.9-2.72c-5.32,3.48-9.66,4.51-14.65,2.39-6.4-2.77-9.71-8.84-10.63-13.83-1-5.81-.71-14.22,6-20.51,4.29-4,9.28-5.16,13.62-4.07a13.57,13.57,0,0,1,5.81,2.93Z" transform="translate(-82.33 -41.62)"/><path class="cls-1" d="M309.88,206.89A13.13,13.13,0,0,1,313,218.17a10.92,10.92,0,0,1-7.27,8.36,11.19,11.19,0,0,1-10.41-1.36,11.6,11.6,0,0,1-5-10.47c.06-2.55,1.58-7.27,5.43-9.66a13.07,13.07,0,0,1,3.85-1.52C302,203.09,306.9,203.58,309.88,206.89Zm-13.4,11.28c0,2.66-.33,5.7,2.33,7.27a6.38,6.38,0,0,0,5.86,0c2.88-1.62,2.55-4.61,2.55-7.7v-5c0-2.72.33-5.81-2.28-7.44a7,7,0,0,0-5.48-.37c-3.31,1.41-3,5.42-3,7.81Zm1-17h-1l6.08-11h4.88v.82Z" transform="translate(-82.33 -41.62)"/><path class="cls-1" d="M324.75,216.38v9.06h3.42v1.2H316v-1.2h3.47V205.21H316V204h8.79v4.78c1.08-2.61,2.44-4.78,5.75-5.1a3.19,3.19,0,0,1,3.09,1,3.29,3.29,0,0,1,.49,2.93,2.72,2.72,0,0,1-1.84,1.9,2.11,2.11,0,0,1-2.28-.44c-1-.81-1-2.06-1.14-3.42C325.29,207.59,324.75,212.64,324.75,216.38Z" transform="translate(-82.33 -41.62)"/><path class="cls-1" d="M356.27,225.44h3.42v1.2H351v-4c-2.27,3.69-4,4.77-7.21,4.55a9.24,9.24,0,0,1-7.44-5.2c-2.11-3.86-1.73-10.2.17-13.62s4.34-4.83,7.32-5,4.78.86,7.16,4.17V189.26h-3.47v-1.2h8.79ZM340.86,218c0,4.23-.27,6,2.12,7.43a4,4,0,0,0,3.74.11c2.77-1.41,4.07-6.29,4.18-8.14.05-.86.05-2,.05-3.25-.05-3-.54-6.67-3.74-8.79a4.05,4.05,0,0,0-3.8-.43c-2.87,1.35-2.55,4.55-2.55,7.86Z" transform="translate(-82.33 -41.62)"/><path class="cls-1" d="M382.59,206.89a13.16,13.16,0,0,1,3.09,11.28,11,11,0,0,1-7.27,8.36A11.21,11.21,0,0,1,368,225.17a11.7,11.7,0,0,1-5-10.47,12.53,12.53,0,0,1,5.43-9.66,13,13,0,0,1,3.85-1.52C374.72,203.09,379.6,203.58,382.59,206.89Zm-13.41,11.28c0,2.66-.32,5.7,2.34,7.27a6.48,6.48,0,0,0,5.91,0c2.82-1.62,2.5-4.61,2.5-7.7v-5c0-2.72.32-5.81-2.28-7.44a7,7,0,0,0-5.48-.37c-3.31,1.41-3,5.42-3,7.81Z" transform="translate(-82.33 -41.62)"/><path class="cls-1" d="M398.1,204v1.2h-4l6,15.46,5.48-15.46h-4V204h7.87v1.2h-2.12l-8.14,22H397.4l-8.68-22h-2.23V204Z" transform="translate(-82.33 -41.62)"/><path class="cls-1" d="M432.12,225.23c-2.11,1.73-3.47,2.28-5.69,1.9-2-.33-3-2-3.26-4.56-1.57,3-3.63,4.39-6.62,4.66-1.57.11-4.23-.21-5.75-2.22a5.76,5.76,0,0,1-.7-5.32c1.13-2.93,3.85-4.39,6.72-5.1a21.41,21.41,0,0,1,6.35-.7c0-3.26.22-8-1.41-9a6.27,6.27,0,0,0-5.05,0c-.92.43-1.62,1-1.68,1.68,0,.16.71,1.35.76,1.52a2.38,2.38,0,0,1,.27,1.52,2.35,2.35,0,0,1-1.57,1.9,2.42,2.42,0,0,1-2.28-.28,2.88,2.88,0,0,1-.81-2.65c.38-2.07,2.06-3.58,4.39-4.51s8.36-.76,10.58.82c2.44,1.73,2.12,4.34,2.12,7.65v11.66c0,1.9,1.41,1.74,3.14.38Zm-17.36-3.86a3.58,3.58,0,0,0,1.9,3,4.68,4.68,0,0,0,4-.38c2.88-1.9,2.55-5.26,2.55-8.19v-.76c-2.33,0-4.77.38-6.13,1.36A5.91,5.91,0,0,0,414.76,221.37Z" transform="translate(-82.33 -41.62)"/><path class="cls-2" d="M113.91,233.38c3.59,0,5.74,0,7.39,2.86a5.56,5.56,0,0,1,.06,4.8c-1.83,3.06-5.59,3.09-8.27,3.09h-1.42v9.48h2.48v.65h-8.4v-.65h2.48V234.06h-2.48v-.68Zm-1.12,10c2.21,0,3.89.18,4.92-1.47.68-1.15.59-5.33,0-6.48-.83-1.59-2.27-1.38-5.13-1.38h-.91v9.33Z" transform="translate(-82.33 -41.62)"/><path class="cls-2" d="M136.59,241.8h.56v3.68h-.62a3.33,3.33,0,0,0-2.3-2.94,3.14,3.14,0,0,0-2.86.38,2.14,2.14,0,0,0-.88,1.77,1.73,1.73,0,0,0,1.12,1.44c1.35.62,4.06,0,5.45,1.83a4.74,4.74,0,0,1,.47,4.09,3.66,3.66,0,0,1-2.83,2.44,5.27,5.27,0,0,1-4.21-1.17l-.74.94h-.38v-4.6h.5c.47,1.8,1,3.6,3.07,4.07a3.27,3.27,0,0,0,3.12-.8,2,2,0,0,0,.44-2c-.38-1.09-1.44-1.35-2.83-1.44-1.88-.12-3.15-.53-3.86-2a5,5,0,0,1,0-3.8,3.51,3.51,0,0,1,2.51-1.95,5.12,5.12,0,0,1,3.77.94Z" transform="translate(-82.33 -41.62)"/><path class="cls-2" d="M150.16,242v11.63H152v.65h-6.63v-.65h1.89v-11h-1.89V242Zm-1.56-8.16a1.73,1.73,0,0,1,1.71,1.71,1.7,1.7,0,0,1-3.39,0A1.73,1.73,0,0,1,148.6,233.82Z" transform="translate(-82.33 -41.62)"/><path class="cls-2" d="M168.13,243.07a1.4,1.4,0,0,0-.88-.59,3.58,3.58,0,0,0-.95-.21,3.92,3.92,0,0,0-1.85.27c-1.77.91-1.65,2.24-1.65,4.5v1.77c0,2-.18,3.77,1.38,4.71a3.68,3.68,0,0,0,3.33,0,4.52,4.52,0,0,0,2.53-3.35h.68a5.1,5.1,0,0,1-3.3,4.12,5.87,5.87,0,0,1-5.27-.8,6.74,6.74,0,0,1,.77-11.13,6,6,0,0,1,5.44-.15,3.1,3.1,0,0,1,1.89,2.33,1.81,1.81,0,0,1-.56,1.68,1.65,1.65,0,0,1-1.36.18,1.4,1.4,0,0,1-.88-1,2.48,2.48,0,0,1,.68-2.15C168.19,243.19,168.13,243.07,168.13,243.07Z" transform="translate(-82.33 -41.62)"/><path class="cls-2" d="M188.66,243.54a7.12,7.12,0,0,1,1.67,6.12,5.92,5.92,0,0,1-3.94,4.54,6.08,6.08,0,0,1-5.66-.74,6.32,6.32,0,0,1-2.71-5.68,6.82,6.82,0,0,1,2.95-5.24,7.07,7.07,0,0,1,2.09-.83A6.56,6.56,0,0,1,188.66,243.54Zm-7.28,6.12c0,1.45-.18,3.1,1.27,4a3.46,3.46,0,0,0,3.18,0c1.56-.88,1.38-2.5,1.38-4.18v-2.71c0-1.47.18-3.15-1.23-4a3.78,3.78,0,0,0-3-.2c-1.8.76-1.62,2.94-1.62,4.24Zm.56-9.24h-.53l3.3-6h2.65v.44Z" transform="translate(-82.33 -41.62)"/><path class="cls-2" d="M202.76,233.32v20.29h2.15v.65H197.7v-.65h2.18V234H197.7v-.65Z" transform="translate(-82.33 -41.62)"/><path class="cls-2" d="M222.88,243.54a7.13,7.13,0,0,1,1.68,6.12,6,6,0,0,1-3.95,4.54,6.06,6.06,0,0,1-5.65-.74,6.34,6.34,0,0,1-2.71-5.68,6.8,6.8,0,0,1,2.94-5.24,7.07,7.07,0,0,1,2.09-.83A6.56,6.56,0,0,1,222.88,243.54Zm-7.28,6.12c0,1.45-.17,3.1,1.27,4a3.53,3.53,0,0,0,3.21,0c1.53-.88,1.35-2.5,1.35-4.18v-2.71c0-1.47.18-3.15-1.23-4a3.78,3.78,0,0,0-3-.2c-1.79.76-1.62,2.94-1.62,4.24Z" transform="translate(-82.33 -41.62)"/><path class="cls-2" d="M244.05,241.86a1.39,1.39,0,0,1,.83.94,1.17,1.17,0,0,1-.3,1.09,1.15,1.15,0,0,1-1,.33c-.59-.12-.79-.5-1-1.27-.26-.18-.65,0-.91.35a4.59,4.59,0,0,1,.5,4.86c-1,1.62-3.54,2.33-4.89,2.24a5.88,5.88,0,0,1-1.94-.47c-.95.65-1.92,1.38-2,2.36a1.06,1.06,0,0,0,.3,1c.44.44,1.56.35,2.56.35h2.12c3.39,0,4.36-.12,5.27,1.06.77,1,.56,3.18,0,4.51a6,6,0,0,1-4.86,3.32c-1.68.27-4.56,0-5.95-1.65a2.67,2.67,0,0,1-.67-2.62,3.56,3.56,0,0,1,2.18-2,2.9,2.9,0,0,1-2.12-2,3.29,3.29,0,0,1,.7-2.92,8.54,8.54,0,0,1,1.92-1.67c-1.45-1.21-1.92-2.15-1.92-3.57a4.15,4.15,0,0,1,1.68-3.38,5.61,5.61,0,0,1,4.3-.92,5.05,5.05,0,0,1,2.39,1.12C242.08,242.18,243.11,241.54,244.05,241.86ZM234.92,261c1.21,1.09,3.45,1,4.33.74a4.6,4.6,0,0,0,3.57-2.89,2.94,2.94,0,0,0,.05-2.12c-.38-.53-.55-.44-3.35-.44h-4.6a3.48,3.48,0,0,0-1,1.88A3.17,3.17,0,0,0,234.92,261Zm4-18.55a2.56,2.56,0,0,0-2.18,0c-1,.56-.91,1.53-.91,2.91v1.24c0,1.36-.12,2.36.91,2.92a2.59,2.59,0,0,0,2.18,0c.65-.39.85-.77.85-2.92v-1.24C239.72,243.39,239.52,242.86,238.87,242.48Z" transform="translate(-82.33 -41.62)"/><path class="cls-2" d="M264.11,253.49a3.36,3.36,0,0,1-3.09,1c-1.06-.17-1.62-1.09-1.77-2.47a4.14,4.14,0,0,1-3.59,2.53,3.63,3.63,0,0,1-3.12-1.2,3.15,3.15,0,0,1-.39-2.89,4.86,4.86,0,0,1,3.65-2.77,11.74,11.74,0,0,1,3.45-.38c0-1.77.12-4.33-.77-4.89a3.4,3.4,0,0,0-2.73,0c-.51.24-.89.56-.92.91,0,.09.39.74.41.83a1.29,1.29,0,0,1-.7,1.85,1.32,1.32,0,0,1-1.24-.14,1.6,1.6,0,0,1-.44-1.45,3.48,3.48,0,0,1,2.38-2.44c1.33-.53,4.54-.41,5.75.44s1.15,2.36,1.15,4.15v6.33c0,1,.76.95,1.7.21Zm-9.43-2.09a2,2,0,0,0,1,1.65,2.52,2.52,0,0,0,2.15-.21c1.56-1,1.38-2.85,1.38-4.44V248a6.21,6.21,0,0,0-3.33.73A3.26,3.26,0,0,0,254.68,251.4Z" transform="translate(-82.33 -41.62)"/><path class="cls-2" d="M297.3,233.38h.56v5.42h-.59c-.77-2.3-1.44-4-4-4.83a5.33,5.33,0,0,0-4.54.56c-2,1.44-2.33,5.18-2.33,6.39v6.24c0,1.27-.11,4.48,2.27,6a5.4,5.4,0,0,0,4.92.26c2.33-1.11,3.15-3,3.86-5.06h.41v5.92h-.56l-1-1.47c-2.89,1.88-5.24,2.44-7.95,1.29a10.19,10.19,0,0,1-5.77-7.51c-.53-3.15-.39-7.71,3.23-11.13a7.93,7.93,0,0,1,7.4-2.21,7.47,7.47,0,0,1,3.15,1.59Z" transform="translate(-82.33 -41.62)"/><path class="cls-2" d="M310.14,233.32v20.29h2.15v.65h-7.21v-.65h2.18V234h-2.18v-.65Z" transform="translate(-82.33 -41.62)"/><path class="cls-2" d="M324.63,242v11.63h1.86v.65h-6.63v-.65h1.88v-11h-1.88V242Zm-4.06-1.56H320l3.27-6H326v.44Z" transform="translate(-82.33 -41.62)"/><path class="cls-2" d="M348.93,253.61v.65h-6.6v-.65h1.86v-7.3c0-1.56.14-3-1-3.6a2.67,2.67,0,0,0-2.29.18c-2,1.21-1.86,2.92-1.86,5.24v5.48h1.86v.65h-6.63v-.65h1.89v-11h-1.89V242H339v1.82c1.83-2.2,3.71-2.56,5.54-1.85,2.65,1,2.5,4,2.5,5.86v5.8Z" transform="translate(-82.33 -41.62)"/><path class="cls-2" d="M361.56,242v11.63h1.86v.65h-6.63v-.65h1.89v-11h-1.89V242ZM360,233.82a1.74,1.74,0,0,1,1.71,1.71,1.7,1.7,0,0,1-3.39,0A1.73,1.73,0,0,1,360,233.82Z" transform="translate(-82.33 -41.62)"/><path class="cls-2" d="M379.53,243.07a1.4,1.4,0,0,0-.89-.59,3.39,3.39,0,0,0-.94-.21,3.92,3.92,0,0,0-1.85.27c-1.77.91-1.65,2.24-1.65,4.5v1.77c0,2-.18,3.77,1.38,4.71a3.68,3.68,0,0,0,3.33,0,4.52,4.52,0,0,0,2.53-3.35h.68a5.1,5.1,0,0,1-3.3,4.12,5.87,5.87,0,0,1-5.27-.8,6.74,6.74,0,0,1,.76-11.13,6,6,0,0,1,5.45-.15,3.12,3.12,0,0,1,1.89,2.33,1.81,1.81,0,0,1-.56,1.68,1.66,1.66,0,0,1-1.36.18,1.4,1.4,0,0,1-.88-1,2.48,2.48,0,0,1,.68-2.15C379.59,243.19,379.53,243.07,379.53,243.07Z" transform="translate(-82.33 -41.62)"/><path class="cls-2" d="M401.76,253.49a3.35,3.35,0,0,1-3.09,1c-1.06-.17-1.62-1.09-1.77-2.47a4.14,4.14,0,0,1-3.59,2.53,3.64,3.64,0,0,1-3.12-1.2,3.12,3.12,0,0,1-.38-2.89,4.84,4.84,0,0,1,3.65-2.77,11.65,11.65,0,0,1,3.44-.38c0-1.77.12-4.33-.76-4.89a3.43,3.43,0,0,0-2.74,0c-.5.24-.89.56-.92.91,0,.09.39.74.42.83a1.31,1.31,0,0,1,.14.82,1.24,1.24,0,0,1-.85,1,1.32,1.32,0,0,1-1.24-.14,1.6,1.6,0,0,1-.44-1.45A3.48,3.48,0,0,1,392.9,242c1.32-.53,4.53-.41,5.74.44s1.15,2.36,1.15,4.15v6.33c0,1,.76.95,1.71.21Zm-9.42-2.09a1.94,1.94,0,0,0,1,1.65,2.52,2.52,0,0,0,2.15-.21c1.56-1,1.38-2.85,1.38-4.44V248a6.23,6.23,0,0,0-3.33.73A3.22,3.22,0,0,0,392.34,251.4Z" transform="translate(-82.33 -41.62)"/><path class="cls-1" d="M241.17,72.15c0,9.18-2.61,16.51-7.75,21.8-.4.42-.8.82-1.22,1.2a53.87,53.87,0,0,1,6.57,2.24q2.08-20.55,13.67-34Q266.57,47,290.17,47q16.57,0,28.64,8.37t16,23.87h1.62l-3.61-25.4q-18.54-12.24-42.68-12.25-29.54,0-47.46,18-1.56,1.59-3,3.26A29.31,29.31,0,0,1,241.17,72.15Z" transform="translate(-82.33 -41.62)"/><path class="cls-1" d="M238.92,117.63a21.2,21.2,0,0,0-5.15-5.87,34.66,34.66,0,0,0-9-4.93c0,.09,0,.17,0,.26q0,25.59,13.53,42.53a29.21,29.21,0,0,0,4.58-15.28A69.28,69.28,0,0,1,238.92,117.63Z" transform="translate(-82.33 -41.62)"/><path class="cls-1" d="M340.42,117.63q-3.06,26.84-17.65,38.72-13.51,11-33.68,11-19.38-.47-32.35-12.37a38.38,38.38,0,0,1-5.65,6.61q15.79,11,38,11.16,34.21,0,50.61-26.83l2.16-28.28Z" transform="translate(-82.33 -41.62)"/><path class="cls-3" d="M295.64,135.61a10.6,10.6,0,0,1-2.75,3.25,9,9,0,0,1-12.92-2.2,2.88,2.88,0,0,0-1.54-1.22,7.75,7.75,0,0,1-5.14-8.17,1.31,1.31,0,0,0-.65-1.38,7.81,7.81,0,0,1-2.46-9.93,1.41,1.41,0,0,0,0-1.54,7.76,7.76,0,0,1,.94-9.52,1.37,1.37,0,0,0,.35-1.28c-.65-4.55,1.33-7.83,5.63-9.31.61-.21.58-.41.49-.94a6.08,6.08,0,0,1,2.68-6.51,28.89,28.89,0,0,1,9.86-4.76,4.79,4.79,0,0,1,5.09,1.34c.43.46.64.38,1,0a4.81,4.81,0,0,1,5-1.33,27.59,27.59,0,0,1,10.54,5.25,5.8,5.8,0,0,1,2.08,6.08c-.12.58,0,.72.53.9a7.85,7.85,0,0,1,5.61,9.11,1.86,1.86,0,0,0,.51,1.7,7.76,7.76,0,0,1,.85,9.13,1.61,1.61,0,0,0-.12,1.75,7.8,7.8,0,0,1-2.5,9.92,1.22,1.22,0,0,0-.62,1.27,7.81,7.81,0,0,1-5.28,8.32,1.85,1.85,0,0,0-1.15.78,9.06,9.06,0,0,1-15.77-.47S295.81,135.76,295.64,135.61Zm1-40.16a5.06,5.06,0,0,1,3.18-1.19c.61,0,1.1.21,1.1.84s-.46.83-1.08.87a3.38,3.38,0,0,0-3.28,3.48q0,16,0,32a7.35,7.35,0,0,0,13.88,3.5,1.63,1.63,0,0,1,1.05-.9c3.67-1,5.5-3.76,4.82-7.45a1.36,1.36,0,0,1,.81-1.72,6.18,6.18,0,0,0,3.08-6.9c-.33-1.5-.5-1.58-1.8-.85a7.56,7.56,0,0,1-4.65,1,.79.79,0,0,1-.8-.88c0-.57.41-.73.91-.74.24,0,.49,0,.73,0a6.4,6.4,0,0,0,5.77-4.12,6.1,6.1,0,0,0-1.67-6.75,1.65,1.65,0,0,1-.51-2,6.26,6.26,0,0,0-11.11-5.38,6.18,6.18,0,0,0-1.18,3.5c0,.55-.18,1-.81,1s-.89-.44-.88-1a6,6,0,0,1,.07-.85A7.9,7.9,0,0,1,311,94.09a1.24,1.24,0,0,0,1.2-1.21,4.26,4.26,0,0,0-8-2.79c-.29.59-.51,1.37-1.34,1s-.42-1.18-.13-1.78a6.28,6.28,0,0,1,4.06-3.19,20.65,20.65,0,0,0-6.58-2.49,2.88,2.88,0,0,0-3.56,2.61C296.5,89.23,296.62,92.25,296.62,95.45Zm-1.95,30.46a2.34,2.34,0,0,0,.15-.49c0-7.36,0-14.72,0-22.09a3.4,3.4,0,0,0-3.2-3.22c-.64,0-1.2-.15-1.16-.88s.65-.83,1.26-.82a5.54,5.54,0,0,1,3.12,1.25V94.52c0-2.51,0-5,0-7.52-.05-2.2-1.39-3.61-3.38-3.4a18.53,18.53,0,0,0-6.86,2.49c.53.21.92.33,1.28.5A5.77,5.77,0,0,1,288.92,90a.77.77,0,0,1-.41,1.1.78.78,0,0,1-1.09-.46c-.09-.18-.16-.37-.25-.55a4.26,4.26,0,0,0-8,2.61,1.37,1.37,0,0,0,1.31,1.39,8,8,0,0,1,6.72,7.49c0,.62-.07,1.19-.85,1.2s-.83-.48-.84-1.07a6,6,0,0,0-.61-2.45,6.27,6.27,0,0,0-11.66,4.51,1.5,1.5,0,0,1-.42,1.81,6.09,6.09,0,0,0-1.72,6.94,6.32,6.32,0,0,0,6.07,4c.57,0,1.23-.09,1.28.72s-.66.94-1.27.95a7.67,7.67,0,0,1-4.58-1.32c-.67-.47-.92-.31-1.18.4a6.15,6.15,0,0,0,2.65,7.46,1.73,1.73,0,0,1,1,2.22,6.07,6.07,0,0,0,4.4,7,2.45,2.45,0,0,1,1.7,1.31,7.24,7.24,0,0,0,8.2,3.42,7.31,7.31,0,0,0,5.51-7.12,6.94,6.94,0,0,0-5.13-7c-.64-.19-1.26-.39-1-1.18s.94-.58,1.53-.4A10.39,10.39,0,0,1,294.67,125.91Z" transform="translate(-82.33 -41.62)"/><path class="cls-3" d="M307.75,109.42c.93,1.75,2.14,2.93,4.13,3.07.64.05,1.14.26,1.05,1s-.68.72-1.21.67a6.45,6.45,0,0,1-5.41-3.94,2.13,2.13,0,0,0-1.54-1.32,6.88,6.88,0,0,1-3.35-2.08c-.41-.42-.78-1-.23-1.47s1-.11,1.44.31c3.79,3.58,9.47,2,10.65-2.94a7,7,0,0,0,.13-1.44c0-.61,0-1.21.83-1.22s.85.56.87,1.18a7.94,7.94,0,0,1-6,7.83Z" transform="translate(-82.33 -41.62)"/><path class="cls-3" d="M300.23,115.57a8.24,8.24,0,0,1,7.6,7.08c.08.72.25,1.12,1.08,1,.59-.08,1.08.17,1.07.84a.84.84,0,0,1-1,.83c-3.45-.27-5.82,2.32-6.4,6,0,.2-.07.4-.09.6a.77.77,0,0,1-1,.81.78.78,0,0,1-.7-1c.4-3.15,1.51-5.89,4.57-7.35a1.18,1.18,0,0,0,.79-1.48,6.42,6.42,0,0,0-5.45-5.55l-.71-.13c-.56-.1-1-.32-.92-1S299.73,115.54,300.23,115.57Z" transform="translate(-82.33 -41.62)"/><path class="cls-3" d="M285.66,110.38a8.64,8.64,0,0,1-5.26-2.6,8,8,0,0,1-2.11-5.4c0-.6,0-1.31.88-1.31s.76.66.78,1.23a6.11,6.11,0,0,0,3.94,5.86,6,6,0,0,0,6.88-1.5c.44-.45.91-.78,1.45-.29s.19,1-.22,1.44a6.67,6.67,0,0,1-3.33,2.1,2.27,2.27,0,0,0-1.61,1.41,6.38,6.38,0,0,1-5.22,3.83c-.61.07-1.34.12-1.4-.72s.64-.89,1.27-1A4.85,4.85,0,0,0,285.66,110.38Z" transform="translate(-82.33 -41.62)"/><path class="cls-3" d="M288.56,117.63a.83.83,0,0,1,.79.75.77.77,0,0,1-.75.91,9.39,9.39,0,0,0-3.8,1.45,5.69,5.69,0,0,0-2.23,2.93c-.64,1.84-.51,2.13,1.1,3.13,2.58,1.61,3.6,4.13,3.95,7a.8.8,0,0,1-.78,1c-.61.05-.82-.33-.89-.89a9.44,9.44,0,0,0-.94-3.24,5.45,5.45,0,0,0-4.76-3.21,7.74,7.74,0,0,1-1.08-.1.76.76,0,0,1-.7-.84.7.7,0,0,1,.8-.73c1.1.15,1.28-.4,1.39-1.37C281.06,121,285,117.52,288.56,117.63Z" transform="translate(-82.33 -41.62)"/><path class="cls-1" d="M250.51,109.25q-9.18-10-26.83-12.51a20.18,20.18,0,0,0,7.38-5q6.85-7,6.85-19.54T227.73,51.89q-10.17-7.74-27.1-7.74H170.37V46h2.16a11.24,11.24,0,0,1,8,3.15,11.87,11.87,0,0,1,3.7,8V161.94l-.14-.07v6.51q10.4,4.37,24.63,4.36,22.88,0,36.92-10.8t14-28.28Q259.7,119.25,250.51,109.25ZM236.56,156.8q-9.65,9.28-26.93,9.28a92.47,92.47,0,0,1-13.69-.9V49.91h2.34q26.11,0,26.12,23.77,0,12.61-6.57,18.64a22.49,22.49,0,0,1-15.76,6h-.18l.18,1.62h.18q21.62,0,33.5,9.18a26,26,0,0,1,7.47,9.55,31.82,31.82,0,0,1,3,14Q246.19,147.52,236.56,156.8Z" transform="translate(-82.33 -41.62)"/><path class="cls-1" d="M184.1,168.38v-6.51l.14.07v-2.17a11.87,11.87,0,0,1-3.7,8,11.24,11.24,0,0,1-8,3.15h-2.16v1.8h30.26c1.3,0,2.57,0,3.82-.11A59.79,59.79,0,0,1,184.1,168.38Z" transform="translate(-82.33 -41.62)"/></svg>